<svg xmlns="http://www.w3.org/2000/svg" xmlns:xlink="http://www.w3.org/1999/xlink" width="162" zoomAndPan="magnify" viewBox="0 0 121.5 110.249996" height="147" preserveAspectRatio="xMidYMid meet" version="1.0"><defs><g/><clipPath id="b50397901d"><path d="M 12.390625 13.652344 L 108.929688 13.652344 L 108.929688 95.363281 L 12.390625 95.363281 Z M 12.390625 13.652344 " clip-rule="nonzero"/></clipPath></defs><g clip-path="url(#b50397901d)"><path stroke-linecap="butt" transform="matrix(0.744932, 0, 0, 0.744932, 12.390379, 13.652182)" fill="none" stroke-linejoin="miter" d="M 0.000330223 0.000217608 L 129.594736 0.000217608 L 129.594736 109.689292 L 0.000330223 109.689292 Z M 0.000330223 0.000217608 " stroke="#000000" stroke-width="2" stroke-opacity="1" stroke-miterlimit="4"/></g><g fill="#000000" fill-opacity="1"><g transform="translate(47.186446, 10.175773)"><g><path d="M 1.1875 -6.015625 C 1.019531 -6.015625 0.878906 -6.066406 0.765625 -6.171875 C 0.660156 -6.285156 0.609375 -6.425781 0.609375 -6.59375 C 0.609375 -6.757812 0.660156 -6.894531 0.765625 -7 C 0.878906 -7.101562 1.019531 -7.15625 1.1875 -7.15625 C 1.351562 -7.15625 1.488281 -7.101562 1.59375 -7 C 1.707031 -6.894531 1.765625 -6.757812 1.765625 -6.59375 C 1.765625 -6.425781 1.707031 -6.285156 1.59375 -6.171875 C 1.488281 -6.066406 1.351562 -6.015625 1.1875 -6.015625 Z M 0.78125 0 L 0.78125 -4.921875 L 1.609375 -4.921875 L 1.609375 0 Z M 0.78125 0 "/></g></g></g><g fill="#000000" fill-opacity="1"><g transform="translate(49.559361, 10.175773)"><g><path d="M 0.6875 0 L 0.6875 -4.921875 L 1.4375 -4.921875 L 1.484375 -4.046875 C 1.648438 -4.359375 1.878906 -4.601562 2.171875 -4.78125 C 2.472656 -4.957031 2.8125 -5.046875 3.1875 -5.046875 C 3.769531 -5.046875 4.234375 -4.867188 4.578125 -4.515625 C 4.929688 -4.160156 5.109375 -3.613281 5.109375 -2.875 L 5.109375 0 L 4.265625 0 L 4.265625 -2.796875 C 4.265625 -3.816406 3.84375 -4.328125 3 -4.328125 C 2.570312 -4.328125 2.21875 -4.171875 1.9375 -3.859375 C 1.65625 -3.554688 1.515625 -3.117188 1.515625 -2.546875 L 1.515625 0 Z M 0.6875 0 "/></g></g></g><g fill="#000000" fill-opacity="1"><g transform="translate(55.23847, 10.175773)"><g><path d="M 0.6875 0 L 0.6875 -7.15625 L 1.515625 -7.15625 L 1.515625 -4.078125 C 1.679688 -4.390625 1.914062 -4.628906 2.21875 -4.796875 C 2.53125 -4.960938 2.863281 -5.046875 3.21875 -5.046875 C 3.789062 -5.046875 4.25 -4.867188 4.59375 -4.515625 C 4.9375 -4.160156 5.109375 -3.613281 5.109375 -2.875 L 5.109375 0 L 4.28125 0 L 4.28125 -2.796875 C 4.28125 -3.816406 3.867188 -4.328125 3.046875 -4.328125 C 2.609375 -4.328125 2.242188 -4.171875 1.953125 -3.859375 C 1.660156 -3.554688 1.515625 -3.117188 1.515625 -2.546875 L 1.515625 0 Z M 0.6875 0 "/></g></g></g><g fill="#000000" fill-opacity="1"><g transform="translate(60.917579, 10.175773)"><g><path d="M 2.328125 0.125 C 1.910156 0.125 1.566406 0.0546875 1.296875 -0.078125 C 1.023438 -0.222656 0.820312 -0.410156 0.6875 -0.640625 C 0.5625 -0.878906 0.5 -1.132812 0.5 -1.40625 C 0.5 -1.90625 0.691406 -2.289062 1.078125 -2.5625 C 1.460938 -2.832031 1.984375 -2.96875 2.640625 -2.96875 L 3.96875 -2.96875 L 3.96875 -3.03125 C 3.96875 -3.457031 3.851562 -3.78125 3.625 -4 C 3.40625 -4.226562 3.109375 -4.34375 2.734375 -4.34375 C 2.410156 -4.34375 2.128906 -4.257812 1.890625 -4.09375 C 1.660156 -3.9375 1.515625 -3.703125 1.453125 -3.390625 L 0.59375 -3.390625 C 0.625 -3.742188 0.742188 -4.039062 0.953125 -4.28125 C 1.160156 -4.53125 1.421875 -4.71875 1.734375 -4.84375 C 2.046875 -4.976562 2.378906 -5.046875 2.734375 -5.046875 C 3.421875 -5.046875 3.9375 -4.859375 4.28125 -4.484375 C 4.632812 -4.117188 4.8125 -3.632812 4.8125 -3.03125 L 4.8125 0 L 4.0625 0 L 4.015625 -0.890625 C 3.878906 -0.609375 3.675781 -0.367188 3.40625 -0.171875 C 3.132812 0.0234375 2.773438 0.125 2.328125 0.125 Z M 2.453125 -0.59375 C 2.773438 -0.59375 3.050781 -0.671875 3.28125 -0.828125 C 3.507812 -0.992188 3.679688 -1.207031 3.796875 -1.46875 C 3.910156 -1.738281 3.96875 -2.019531 3.96875 -2.3125 L 3.96875 -2.328125 L 2.71875 -2.328125 C 2.226562 -2.328125 1.878906 -2.238281 1.671875 -2.0625 C 1.472656 -1.894531 1.375 -1.6875 1.375 -1.4375 C 1.375 -1.175781 1.46875 -0.96875 1.65625 -0.8125 C 1.84375 -0.664062 2.109375 -0.59375 2.453125 -0.59375 Z M 2.453125 -0.59375 "/></g></g></g><g fill="#000000" fill-opacity="1"><g transform="translate(66.28891, 10.175773)"><g><path d="M 0.6875 0 L 0.6875 -7.15625 L 1.515625 -7.15625 L 1.515625 0 Z M 0.6875 0 "/></g></g></g><g fill="#000000" fill-opacity="1"><g transform="translate(68.49304, 10.175773)"><g><path d="M 2.90625 0.125 C 2.4375 0.125 2.019531 0.015625 1.65625 -0.203125 C 1.289062 -0.421875 1.003906 -0.71875 0.796875 -1.09375 C 0.585938 -1.476562 0.484375 -1.9375 0.484375 -2.46875 C 0.484375 -2.976562 0.582031 -3.425781 0.78125 -3.8125 C 0.988281 -4.207031 1.273438 -4.507812 1.640625 -4.71875 C 2.015625 -4.9375 2.441406 -5.046875 2.921875 -5.046875 C 3.398438 -5.046875 3.8125 -4.9375 4.15625 -4.71875 C 4.507812 -4.507812 4.773438 -4.226562 4.953125 -3.875 C 5.140625 -3.519531 5.234375 -3.144531 5.234375 -2.75 C 5.234375 -2.675781 5.234375 -2.601562 5.234375 -2.53125 C 5.234375 -2.457031 5.234375 -2.375 5.234375 -2.28125 L 1.296875 -2.28125 C 1.316406 -1.894531 1.40625 -1.578125 1.5625 -1.328125 C 1.71875 -1.085938 1.910156 -0.90625 2.140625 -0.78125 C 2.378906 -0.65625 2.632812 -0.59375 2.90625 -0.59375 C 3.25 -0.59375 3.535156 -0.671875 3.765625 -0.828125 C 3.992188 -0.984375 4.160156 -1.195312 4.265625 -1.46875 L 5.09375 -1.46875 C 4.96875 -1.007812 4.71875 -0.628906 4.34375 -0.328125 C 3.96875 -0.0234375 3.488281 0.125 2.90625 0.125 Z M 2.90625 -4.34375 C 2.507812 -4.34375 2.15625 -4.222656 1.84375 -3.984375 C 1.53125 -3.742188 1.351562 -3.390625 1.3125 -2.921875 L 4.40625 -2.921875 C 4.382812 -3.367188 4.234375 -3.71875 3.953125 -3.96875 C 3.671875 -4.21875 3.320312 -4.34375 2.90625 -4.34375 Z M 2.90625 -4.34375 "/></g></g></g><g fill="#000000" fill-opacity="1"><g transform="translate(45.917732, 103.316876)"><g><path d="M 2.90625 0.125 C 2.4375 0.125 2.019531 0.015625 1.65625 -0.203125 C 1.289062 -0.421875 1.003906 -0.71875 0.796875 -1.09375 C 0.585938 -1.476562 0.484375 -1.9375 0.484375 -2.46875 C 0.484375 -2.976562 0.582031 -3.425781 0.78125 -3.8125 C 0.988281 -4.207031 1.273438 -4.507812 1.640625 -4.71875 C 2.015625 -4.9375 2.441406 -5.046875 2.921875 -5.046875 C 3.398438 -5.046875 3.8125 -4.9375 4.15625 -4.71875 C 4.507812 -4.507812 4.773438 -4.226562 4.953125 -3.875 C 5.140625 -3.519531 5.234375 -3.144531 5.234375 -2.75 C 5.234375 -2.675781 5.234375 -2.601562 5.234375 -2.53125 C 5.234375 -2.457031 5.234375 -2.375 5.234375 -2.28125 L 1.296875 -2.28125 C 1.316406 -1.894531 1.40625 -1.578125 1.5625 -1.328125 C 1.71875 -1.085938 1.910156 -0.90625 2.140625 -0.78125 C 2.378906 -0.65625 2.632812 -0.59375 2.90625 -0.59375 C 3.25 -0.59375 3.535156 -0.671875 3.765625 -0.828125 C 3.992188 -0.984375 4.160156 -1.195312 4.265625 -1.46875 L 5.09375 -1.46875 C 4.96875 -1.007812 4.71875 -0.628906 4.34375 -0.328125 C 3.96875 -0.0234375 3.488281 0.125 2.90625 0.125 Z M 2.90625 -4.34375 C 2.507812 -4.34375 2.15625 -4.222656 1.84375 -3.984375 C 1.53125 -3.742188 1.351562 -3.390625 1.3125 -2.921875 L 4.40625 -2.921875 C 4.382812 -3.367188 4.234375 -3.71875 3.953125 -3.96875 C 3.671875 -4.21875 3.320312 -4.34375 2.90625 -4.34375 Z M 2.90625 -4.34375 "/></g></g></g><g fill="#000000" fill-opacity="1"><g transform="translate(51.56706, 103.316876)"><g><path d="M 0.1875 0 L 1.890625 -2.46875 L 0.1875 -4.921875 L 1.09375 -4.921875 L 2.46875 -2.890625 L 3.859375 -4.921875 L 4.765625 -4.921875 L 3.046875 -2.46875 L 4.765625 0 L 3.859375 0 L 2.46875 -2.03125 L 1.09375 0 Z M 0.1875 0 "/></g></g></g><g fill="#000000" fill-opacity="1"><g transform="translate(56.511456, 103.316876)"><g><path d="M 0.6875 0 L 0.6875 -7.15625 L 1.515625 -7.15625 L 1.515625 -4.078125 C 1.679688 -4.390625 1.914062 -4.628906 2.21875 -4.796875 C 2.53125 -4.960938 2.863281 -5.046875 3.21875 -5.046875 C 3.789062 -5.046875 4.25 -4.867188 4.59375 -4.515625 C 4.9375 -4.160156 5.109375 -3.613281 5.109375 -2.875 L 5.109375 0 L 4.28125 0 L 4.28125 -2.796875 C 4.28125 -3.816406 3.867188 -4.328125 3.046875 -4.328125 C 2.609375 -4.328125 2.242188 -4.171875 1.953125 -3.859375 C 1.660156 -3.554688 1.515625 -3.117188 1.515625 -2.546875 L 1.515625 0 Z M 0.6875 0 "/></g></g></g><g fill="#000000" fill-opacity="1"><g transform="translate(62.190565, 103.316876)"><g><path d="M 2.328125 0.125 C 1.910156 0.125 1.566406 0.0546875 1.296875 -0.078125 C 1.023438 -0.222656 0.820312 -0.410156 0.6875 -0.640625 C 0.5625 -0.878906 0.5 -1.132812 0.5 -1.40625 C 0.5 -1.90625 0.691406 -2.289062 1.078125 -2.5625 C 1.460938 -2.832031 1.984375 -2.96875 2.640625 -2.96875 L 3.96875 -2.96875 L 3.96875 -3.03125 C 3.96875 -3.457031 3.851562 -3.78125 3.625 -4 C 3.40625 -4.226562 3.109375 -4.34375 2.734375 -4.34375 C 2.410156 -4.34375 2.128906 -4.257812 1.890625 -4.09375 C 1.660156 -3.9375 1.515625 -3.703125 1.453125 -3.390625 L 0.59375 -3.390625 C 0.625 -3.742188 0.742188 -4.039062 0.953125 -4.28125 C 1.160156 -4.53125 1.421875 -4.71875 1.734375 -4.84375 C 2.046875 -4.976562 2.378906 -5.046875 2.734375 -5.046875 C 3.421875 -5.046875 3.9375 -4.859375 4.28125 -4.484375 C 4.632812 -4.117188 4.8125 -3.632812 4.8125 -3.03125 L 4.8125 0 L 4.0625 0 L 4.015625 -0.890625 C 3.878906 -0.609375 3.675781 -0.367188 3.40625 -0.171875 C 3.132812 0.0234375 2.773438 0.125 2.328125 0.125 Z M 2.453125 -0.59375 C 2.773438 -0.59375 3.050781 -0.671875 3.28125 -0.828125 C 3.507812 -0.992188 3.679688 -1.207031 3.796875 -1.46875 C 3.910156 -1.738281 3.96875 -2.019531 3.96875 -2.3125 L 3.96875 -2.328125 L 2.71875 -2.328125 C 2.226562 -2.328125 1.878906 -2.238281 1.671875 -2.0625 C 1.472656 -1.894531 1.375 -1.6875 1.375 -1.4375 C 1.375 -1.175781 1.46875 -0.96875 1.65625 -0.8125 C 1.84375 -0.664062 2.109375 -0.59375 2.453125 -0.59375 Z M 2.453125 -0.59375 "/></g></g></g><g fill="#000000" fill-opacity="1"><g transform="translate(67.561896, 103.316876)"><g><path d="M 0.6875 0 L 0.6875 -7.15625 L 1.515625 -7.15625 L 1.515625 0 Z M 0.6875 0 "/></g></g></g><g fill="#000000" fill-opacity="1"><g transform="translate(69.766025, 103.316876)"><g><path d="M 2.90625 0.125 C 2.4375 0.125 2.019531 0.015625 1.65625 -0.203125 C 1.289062 -0.421875 1.003906 -0.71875 0.796875 -1.09375 C 0.585938 -1.476562 0.484375 -1.9375 0.484375 -2.46875 C 0.484375 -2.976562 0.582031 -3.425781 0.78125 -3.8125 C 0.988281 -4.207031 1.273438 -4.507812 1.640625 -4.71875 C 2.015625 -4.9375 2.441406 -5.046875 2.921875 -5.046875 C 3.398438 -5.046875 3.8125 -4.9375 4.15625 -4.71875 C 4.507812 -4.507812 4.773438 -4.226562 4.953125 -3.875 C 5.140625 -3.519531 5.234375 -3.144531 5.234375 -2.75 C 5.234375 -2.675781 5.234375 -2.601562 5.234375 -2.53125 C 5.234375 -2.457031 5.234375 -2.375 5.234375 -2.28125 L 1.296875 -2.28125 C 1.316406 -1.894531 1.40625 -1.578125 1.5625 -1.328125 C 1.71875 -1.085938 1.910156 -0.90625 2.140625 -0.78125 C 2.378906 -0.65625 2.632812 -0.59375 2.90625 -0.59375 C 3.25 -0.59375 3.535156 -0.671875 3.765625 -0.828125 C 3.992188 -0.984375 4.160156 -1.195312 4.265625 -1.46875 L 5.09375 -1.46875 C 4.96875 -1.007812 4.71875 -0.628906 4.34375 -0.328125 C 3.96875 -0.0234375 3.488281 0.125 2.90625 0.125 Z M 2.90625 -4.34375 C 2.507812 -4.34375 2.15625 -4.222656 1.84375 -3.984375 C 1.53125 -3.742188 1.351562 -3.390625 1.3125 -2.921875 L 4.40625 -2.921875 C 4.382812 -3.367188 4.234375 -3.71875 3.953125 -3.96875 C 3.671875 -4.21875 3.320312 -4.34375 2.90625 -4.34375 Z M 2.90625 -4.34375 "/></g></g></g><g fill="#000000" fill-opacity="1"><g transform="translate(2.391989, 34.542052)"><g><path d="M 0.6875 0 L 0.6875 -7.15625 L 1.515625 -7.15625 L 1.515625 -4.078125 C 1.679688 -4.390625 1.914062 -4.628906 2.21875 -4.796875 C 2.53125 -4.960938 2.863281 -5.046875 3.21875 -5.046875 C 3.789062 -5.046875 4.25 -4.867188 4.59375 -4.515625 C 4.9375 -4.160156 5.109375 -3.613281 5.109375 -2.875 L 5.109375 0 L 4.28125 0 L 4.28125 -2.796875 C 4.28125 -3.816406 3.867188 -4.328125 3.046875 -4.328125 C 2.609375 -4.328125 2.242188 -4.171875 1.953125 -3.859375 C 1.660156 -3.554688 1.515625 -3.117188 1.515625 -2.546875 L 1.515625 0 Z M 0.6875 0 "/></g></g></g><g fill="#000000" fill-opacity="1"><g transform="translate(2.391989, 47.950835)"><g><path d="M 2.9375 0.125 C 2.46875 0.125 2.046875 0.0195312 1.671875 -0.1875 C 1.304688 -0.40625 1.015625 -0.707031 0.796875 -1.09375 C 0.585938 -1.476562 0.484375 -1.9375 0.484375 -2.46875 C 0.484375 -2.988281 0.59375 -3.441406 0.8125 -3.828125 C 1.03125 -4.210938 1.320312 -4.507812 1.6875 -4.71875 C 2.0625 -4.9375 2.484375 -5.046875 2.953125 -5.046875 C 3.410156 -5.046875 3.828125 -4.9375 4.203125 -4.71875 C 4.578125 -4.507812 4.867188 -4.210938 5.078125 -3.828125 C 5.296875 -3.441406 5.40625 -2.988281 5.40625 -2.46875 C 5.40625 -1.9375 5.296875 -1.476562 5.078125 -1.09375 C 4.859375 -0.707031 4.5625 -0.40625 4.1875 -0.1875 C 3.8125 0.0195312 3.394531 0.125 2.9375 0.125 Z M 2.9375 -0.59375 C 3.21875 -0.59375 3.476562 -0.660156 3.71875 -0.796875 C 3.96875 -0.941406 4.164062 -1.148438 4.3125 -1.421875 C 4.46875 -1.703125 4.546875 -2.050781 4.546875 -2.46875 C 4.546875 -2.875 4.472656 -3.21875 4.328125 -3.5 C 4.179688 -3.78125 3.984375 -3.988281 3.734375 -4.125 C 3.492188 -4.257812 3.234375 -4.328125 2.953125 -4.328125 C 2.671875 -4.328125 2.40625 -4.257812 2.15625 -4.125 C 1.90625 -3.988281 1.703125 -3.78125 1.546875 -3.5 C 1.398438 -3.21875 1.328125 -2.875 1.328125 -2.46875 C 1.328125 -2.050781 1.398438 -1.703125 1.546875 -1.421875 C 1.703125 -1.148438 1.898438 -0.941406 2.140625 -0.796875 C 2.390625 -0.660156 2.65625 -0.59375 2.9375 -0.59375 Z M 2.9375 -0.59375 "/></g></g></g><g fill="#000000" fill-opacity="1"><g transform="translate(3.497748, 61.359618)"><g><path d="M 0.6875 0 L 0.6875 -7.15625 L 1.515625 -7.15625 L 1.515625 0 Z M 0.6875 0 "/></g></g></g><g fill="#000000" fill-opacity="1"><g transform="translate(2.391989, 74.768401)"><g><path d="M 2.921875 0.125 C 2.429688 0.125 2 0.0078125 1.625 -0.21875 C 1.257812 -0.445312 0.976562 -0.753906 0.78125 -1.140625 C 0.582031 -1.535156 0.484375 -1.976562 0.484375 -2.46875 C 0.484375 -2.96875 0.582031 -3.410156 0.78125 -3.796875 C 0.988281 -4.179688 1.273438 -4.484375 1.640625 -4.703125 C 2.003906 -4.929688 2.4375 -5.046875 2.9375 -5.046875 C 3.332031 -5.046875 3.6875 -4.960938 4 -4.796875 C 4.3125 -4.628906 4.554688 -4.398438 4.734375 -4.109375 L 4.734375 -7.15625 L 5.5625 -7.15625 L 5.5625 0 L 4.8125 0 L 4.734375 -0.8125 C 4.566406 -0.570312 4.332031 -0.351562 4.03125 -0.15625 C 3.738281 0.03125 3.367188 0.125 2.921875 0.125 Z M 3.015625 -0.609375 C 3.347656 -0.609375 3.640625 -0.6875 3.890625 -0.84375 C 4.140625 -1 4.335938 -1.210938 4.484375 -1.484375 C 4.628906 -1.765625 4.703125 -2.09375 4.703125 -2.46875 C 4.703125 -2.832031 4.628906 -3.15625 4.484375 -3.4375 C 4.335938 -3.71875 4.140625 -3.9375 3.890625 -4.09375 C 3.640625 -4.25 3.347656 -4.328125 3.015625 -4.328125 C 2.691406 -4.328125 2.398438 -4.25 2.140625 -4.09375 C 1.890625 -3.9375 1.691406 -3.71875 1.546875 -3.4375 C 1.398438 -3.15625 1.328125 -2.832031 1.328125 -2.46875 C 1.328125 -2.09375 1.398438 -1.765625 1.546875 -1.484375 C 1.691406 -1.210938 1.890625 -1 2.140625 -0.84375 C 2.398438 -0.6875 2.691406 -0.609375 3.015625 -0.609375 Z M 3.015625 -0.609375 "/></g></g></g><g fill="#000000" fill-opacity="1"><g transform="translate(114.154277, 34.542052)"><g><path d="M 0.6875 0 L 0.6875 -7.15625 L 1.515625 -7.15625 L 1.515625 -4.078125 C 1.679688 -4.390625 1.914062 -4.628906 2.21875 -4.796875 C 2.53125 -4.960938 2.863281 -5.046875 3.21875 -5.046875 C 3.789062 -5.046875 4.25 -4.867188 4.59375 -4.515625 C 4.9375 -4.160156 5.109375 -3.613281 5.109375 -2.875 L 5.109375 0 L 4.28125 0 L 4.28125 -2.796875 C 4.28125 -3.816406 3.867188 -4.328125 3.046875 -4.328125 C 2.609375 -4.328125 2.242188 -4.171875 1.953125 -3.859375 C 1.660156 -3.554688 1.515625 -3.117188 1.515625 -2.546875 L 1.515625 0 Z M 0.6875 0 "/></g></g></g><g fill="#000000" fill-opacity="1"><g transform="translate(114.154277, 47.950835)"><g><path d="M 2.9375 0.125 C 2.46875 0.125 2.046875 0.0195312 1.671875 -0.1875 C 1.304688 -0.40625 1.015625 -0.707031 0.796875 -1.09375 C 0.585938 -1.476562 0.484375 -1.9375 0.484375 -2.46875 C 0.484375 -2.988281 0.59375 -3.441406 0.8125 -3.828125 C 1.03125 -4.210938 1.320312 -4.507812 1.6875 -4.71875 C 2.0625 -4.9375 2.484375 -5.046875 2.953125 -5.046875 C 3.410156 -5.046875 3.828125 -4.9375 4.203125 -4.71875 C 4.578125 -4.507812 4.867188 -4.210938 5.078125 -3.828125 C 5.296875 -3.441406 5.40625 -2.988281 5.40625 -2.46875 C 5.40625 -1.9375 5.296875 -1.476562 5.078125 -1.09375 C 4.859375 -0.707031 4.5625 -0.40625 4.1875 -0.1875 C 3.8125 0.0195312 3.394531 0.125 2.9375 0.125 Z M 2.9375 -0.59375 C 3.21875 -0.59375 3.476562 -0.660156 3.71875 -0.796875 C 3.96875 -0.941406 4.164062 -1.148438 4.3125 -1.421875 C 4.46875 -1.703125 4.546875 -2.050781 4.546875 -2.46875 C 4.546875 -2.875 4.472656 -3.21875 4.328125 -3.5 C 4.179688 -3.78125 3.984375 -3.988281 3.734375 -4.125 C 3.492188 -4.257812 3.234375 -4.328125 2.953125 -4.328125 C 2.671875 -4.328125 2.40625 -4.257812 2.15625 -4.125 C 1.90625 -3.988281 1.703125 -3.78125 1.546875 -3.5 C 1.398438 -3.21875 1.328125 -2.875 1.328125 -2.46875 C 1.328125 -2.050781 1.398438 -1.703125 1.546875 -1.421875 C 1.703125 -1.148438 1.898438 -0.941406 2.140625 -0.796875 C 2.390625 -0.660156 2.65625 -0.59375 2.9375 -0.59375 Z M 2.9375 -0.59375 "/></g></g></g><g fill="#000000" fill-opacity="1"><g transform="translate(115.260036, 61.359618)"><g><path d="M 0.6875 0 L 0.6875 -7.15625 L 1.515625 -7.15625 L 1.515625 0 Z M 0.6875 0 "/></g></g></g><g fill="#000000" fill-opacity="1"><g transform="translate(114.154277, 74.768401)"><g><path d="M 2.921875 0.125 C 2.429688 0.125 2 0.0078125 1.625 -0.21875 C 1.257812 -0.445312 0.976562 -0.753906 0.78125 -1.140625 C 0.582031 -1.535156 0.484375 -1.976562 0.484375 -2.46875 C 0.484375 -2.96875 0.582031 -3.410156 0.78125 -3.796875 C 0.988281 -4.179688 1.273438 -4.484375 1.640625 -4.703125 C 2.003906 -4.929688 2.4375 -5.046875 2.9375 -5.046875 C 3.332031 -5.046875 3.6875 -4.960938 4 -4.796875 C 4.3125 -4.628906 4.554688 -4.398438 4.734375 -4.109375 L 4.734375 -7.15625 L 5.5625 -7.15625 L 5.5625 0 L 4.8125 0 L 4.734375 -0.8125 C 4.566406 -0.570312 4.332031 -0.351562 4.03125 -0.15625 C 3.738281 0.03125 3.367188 0.125 2.921875 0.125 Z M 3.015625 -0.609375 C 3.347656 -0.609375 3.640625 -0.6875 3.890625 -0.84375 C 4.140625 -1 4.335938 -1.210938 4.484375 -1.484375 C 4.628906 -1.765625 4.703125 -2.09375 4.703125 -2.46875 C 4.703125 -2.832031 4.628906 -3.15625 4.484375 -3.4375 C 4.335938 -3.71875 4.140625 -3.9375 3.890625 -4.09375 C 3.640625 -4.25 3.347656 -4.328125 3.015625 -4.328125 C 2.691406 -4.328125 2.398438 -4.25 2.140625 -4.09375 C 1.890625 -3.9375 1.691406 -3.71875 1.546875 -3.4375 C 1.398438 -3.15625 1.328125 -2.832031 1.328125 -2.46875 C 1.328125 -2.09375 1.398438 -1.765625 1.546875 -1.484375 C 1.691406 -1.210938 1.890625 -1 2.140625 -0.84375 C 2.398438 -0.6875 2.691406 -0.609375 3.015625 -0.609375 Z M 3.015625 -0.609375 "/></g></g></g><g fill="#000000" fill-opacity="1"><g transform="translate(38.887434, 56.393407)"><g><path d="M 3.3125 0.125 C 2.914062 0.125 2.554688 0.0390625 2.234375 -0.125 C 1.921875 -0.289062 1.679688 -0.523438 1.515625 -0.828125 L 1.4375 0 L 0.6875 0 L 0.6875 -7.15625 L 1.515625 -7.15625 L 1.515625 -4.109375 C 1.679688 -4.347656 1.910156 -4.5625 2.203125 -4.75 C 2.492188 -4.945312 2.867188 -5.046875 3.328125 -5.046875 C 3.816406 -5.046875 4.242188 -4.929688 4.609375 -4.703125 C 4.972656 -4.484375 5.253906 -4.175781 5.453125 -3.78125 C 5.660156 -3.394531 5.765625 -2.953125 5.765625 -2.453125 C 5.765625 -1.953125 5.660156 -1.507812 5.453125 -1.125 C 5.253906 -0.738281 4.96875 -0.429688 4.59375 -0.203125 C 4.226562 0.015625 3.800781 0.125 3.3125 0.125 Z M 3.234375 -0.609375 C 3.566406 -0.609375 3.859375 -0.6875 4.109375 -0.84375 C 4.359375 -1 4.554688 -1.210938 4.703125 -1.484375 C 4.847656 -1.765625 4.921875 -2.09375 4.921875 -2.46875 C 4.921875 -2.832031 4.847656 -3.15625 4.703125 -3.4375 C 4.554688 -3.71875 4.359375 -3.9375 4.109375 -4.09375 C 3.859375 -4.25 3.566406 -4.328125 3.234375 -4.328125 C 2.898438 -4.328125 2.609375 -4.25 2.359375 -4.09375 C 2.109375 -3.9375 1.910156 -3.71875 1.765625 -3.4375 C 1.617188 -3.15625 1.546875 -2.832031 1.546875 -2.46875 C 1.546875 -2.09375 1.617188 -1.765625 1.765625 -1.484375 C 1.910156 -1.210938 2.109375 -1 2.359375 -0.84375 C 2.609375 -0.6875 2.898438 -0.609375 3.234375 -0.609375 Z M 3.234375 -0.609375 "/></g></g></g><g fill="#000000" fill-opacity="1"><g transform="translate(45.122537, 56.393407)"><g><path d="M 2.9375 0.125 C 2.46875 0.125 2.046875 0.0195312 1.671875 -0.1875 C 1.304688 -0.40625 1.015625 -0.707031 0.796875 -1.09375 C 0.585938 -1.476562 0.484375 -1.9375 0.484375 -2.46875 C 0.484375 -2.988281 0.59375 -3.441406 0.8125 -3.828125 C 1.03125 -4.210938 1.320312 -4.507812 1.6875 -4.71875 C 2.0625 -4.9375 2.484375 -5.046875 2.953125 -5.046875 C 3.410156 -5.046875 3.828125 -4.9375 4.203125 -4.71875 C 4.578125 -4.507812 4.867188 -4.210938 5.078125 -3.828125 C 5.296875 -3.441406 5.40625 -2.988281 5.40625 -2.46875 C 5.40625 -1.9375 5.296875 -1.476562 5.078125 -1.09375 C 4.859375 -0.707031 4.5625 -0.40625 4.1875 -0.1875 C 3.8125 0.0195312 3.394531 0.125 2.9375 0.125 Z M 2.9375 -0.59375 C 3.21875 -0.59375 3.476562 -0.660156 3.71875 -0.796875 C 3.96875 -0.941406 4.164062 -1.148438 4.3125 -1.421875 C 4.46875 -1.703125 4.546875 -2.050781 4.546875 -2.46875 C 4.546875 -2.875 4.472656 -3.21875 4.328125 -3.5 C 4.179688 -3.78125 3.984375 -3.988281 3.734375 -4.125 C 3.492188 -4.257812 3.234375 -4.328125 2.953125 -4.328125 C 2.671875 -4.328125 2.40625 -4.257812 2.15625 -4.125 C 1.90625 -3.988281 1.703125 -3.78125 1.546875 -3.5 C 1.398438 -3.21875 1.328125 -2.875 1.328125 -2.46875 C 1.328125 -2.050781 1.398438 -1.703125 1.546875 -1.421875 C 1.703125 -1.148438 1.898438 -0.941406 2.140625 -0.796875 C 2.390625 -0.660156 2.65625 -0.59375 2.9375 -0.59375 Z M 2.9375 -0.59375 "/></g></g></g><g fill="#000000" fill-opacity="1"><g transform="translate(51.000223, 56.393407)"><g><path d="M 0.1875 0 L 1.890625 -2.46875 L 0.1875 -4.921875 L 1.09375 -4.921875 L 2.46875 -2.890625 L 3.859375 -4.921875 L 4.765625 -4.921875 L 3.046875 -2.46875 L 4.765625 0 L 3.859375 0 L 2.46875 -2.03125 L 1.09375 0 Z M 0.1875 0 "/></g></g></g><g fill="#000000" fill-opacity="1"><g transform="translate(55.944619, 56.393407)"><g/></g></g><g fill="#000000" fill-opacity="1"><g transform="translate(58.575673, 56.393407)"><g><path d="M 2.921875 0.125 C 2.429688 0.125 2 0.0078125 1.625 -0.21875 C 1.257812 -0.445312 0.976562 -0.753906 0.78125 -1.140625 C 0.582031 -1.535156 0.484375 -1.976562 0.484375 -2.46875 C 0.484375 -2.96875 0.582031 -3.410156 0.78125 -3.796875 C 0.988281 -4.179688 1.273438 -4.484375 1.640625 -4.703125 C 2.003906 -4.929688 2.4375 -5.046875 2.9375 -5.046875 C 3.332031 -5.046875 3.6875 -4.960938 4 -4.796875 C 4.3125 -4.628906 4.554688 -4.398438 4.734375 -4.109375 L 4.734375 -7.15625 L 5.5625 -7.15625 L 5.5625 0 L 4.8125 0 L 4.734375 -0.8125 C 4.566406 -0.570312 4.332031 -0.351562 4.03125 -0.15625 C 3.738281 0.03125 3.367188 0.125 2.921875 0.125 Z M 3.015625 -0.609375 C 3.347656 -0.609375 3.640625 -0.6875 3.890625 -0.84375 C 4.140625 -1 4.335938 -1.210938 4.484375 -1.484375 C 4.628906 -1.765625 4.703125 -2.09375 4.703125 -2.46875 C 4.703125 -2.832031 4.628906 -3.15625 4.484375 -3.4375 C 4.335938 -3.71875 4.140625 -3.9375 3.890625 -4.09375 C 3.640625 -4.25 3.347656 -4.328125 3.015625 -4.328125 C 2.691406 -4.328125 2.398438 -4.25 2.140625 -4.09375 C 1.890625 -3.9375 1.691406 -3.71875 1.546875 -3.4375 C 1.398438 -3.15625 1.328125 -2.832031 1.328125 -2.46875 C 1.328125 -2.09375 1.398438 -1.765625 1.546875 -1.484375 C 1.691406 -1.210938 1.890625 -1 2.140625 -0.84375 C 2.398438 -0.6875 2.691406 -0.609375 3.015625 -0.609375 Z M 3.015625 -0.609375 "/></g></g></g><g fill="#000000" fill-opacity="1"><g transform="translate(64.810776, 56.393407)"><g><path d="M 2.90625 0.125 C 2.4375 0.125 2.019531 0.015625 1.65625 -0.203125 C 1.289062 -0.421875 1.003906 -0.71875 0.796875 -1.09375 C 0.585938 -1.476562 0.484375 -1.9375 0.484375 -2.46875 C 0.484375 -2.976562 0.582031 -3.425781 0.78125 -3.8125 C 0.988281 -4.207031 1.273438 -4.507812 1.640625 -4.71875 C 2.015625 -4.9375 2.441406 -5.046875 2.921875 -5.046875 C 3.398438 -5.046875 3.8125 -4.9375 4.15625 -4.71875 C 4.507812 -4.507812 4.773438 -4.226562 4.953125 -3.875 C 5.140625 -3.519531 5.234375 -3.144531 5.234375 -2.75 C 5.234375 -2.675781 5.234375 -2.601562 5.234375 -2.53125 C 5.234375 -2.457031 5.234375 -2.375 5.234375 -2.28125 L 1.296875 -2.28125 C 1.316406 -1.894531 1.40625 -1.578125 1.5625 -1.328125 C 1.71875 -1.085938 1.910156 -0.90625 2.140625 -0.78125 C 2.378906 -0.65625 2.632812 -0.59375 2.90625 -0.59375 C 3.25 -0.59375 3.535156 -0.671875 3.765625 -0.828125 C 3.992188 -0.984375 4.160156 -1.195312 4.265625 -1.46875 L 5.09375 -1.46875 C 4.96875 -1.007812 4.71875 -0.628906 4.34375 -0.328125 C 3.96875 -0.0234375 3.488281 0.125 2.90625 0.125 Z M 2.90625 -4.34375 C 2.507812 -4.34375 2.15625 -4.222656 1.84375 -3.984375 C 1.53125 -3.742188 1.351562 -3.390625 1.3125 -2.921875 L 4.40625 -2.921875 C 4.382812 -3.367188 4.234375 -3.71875 3.953125 -3.96875 C 3.671875 -4.21875 3.320312 -4.34375 2.90625 -4.34375 Z M 2.90625 -4.34375 "/></g></g></g><g fill="#000000" fill-opacity="1"><g transform="translate(70.460104, 56.393407)"><g><path d="M 2.90625 0.125 C 2.4375 0.125 2.019531 0.015625 1.65625 -0.203125 C 1.289062 -0.421875 1.003906 -0.71875 0.796875 -1.09375 C 0.585938 -1.476562 0.484375 -1.9375 0.484375 -2.46875 C 0.484375 -2.976562 0.582031 -3.425781 0.78125 -3.8125 C 0.988281 -4.207031 1.273438 -4.507812 1.640625 -4.71875 C 2.015625 -4.9375 2.441406 -5.046875 2.921875 -5.046875 C 3.398438 -5.046875 3.8125 -4.9375 4.15625 -4.71875 C 4.507812 -4.507812 4.773438 -4.226562 4.953125 -3.875 C 5.140625 -3.519531 5.234375 -3.144531 5.234375 -2.75 C 5.234375 -2.675781 5.234375 -2.601562 5.234375 -2.53125 C 5.234375 -2.457031 5.234375 -2.375 5.234375 -2.28125 L 1.296875 -2.28125 C 1.316406 -1.894531 1.40625 -1.578125 1.5625 -1.328125 C 1.71875 -1.085938 1.910156 -0.90625 2.140625 -0.78125 C 2.378906 -0.65625 2.632812 -0.59375 2.90625 -0.59375 C 3.25 -0.59375 3.535156 -0.671875 3.765625 -0.828125 C 3.992188 -0.984375 4.160156 -1.195312 4.265625 -1.46875 L 5.09375 -1.46875 C 4.96875 -1.007812 4.71875 -0.628906 4.34375 -0.328125 C 3.96875 -0.0234375 3.488281 0.125 2.90625 0.125 Z M 2.90625 -4.34375 C 2.507812 -4.34375 2.15625 -4.222656 1.84375 -3.984375 C 1.53125 -3.742188 1.351562 -3.390625 1.3125 -2.921875 L 4.40625 -2.921875 C 4.382812 -3.367188 4.234375 -3.71875 3.953125 -3.96875 C 3.671875 -4.21875 3.320312 -4.34375 2.90625 -4.34375 Z M 2.90625 -4.34375 "/></g></g></g><g fill="#000000" fill-opacity="1"><g transform="translate(76.109432, 56.393407)"><g><path d="M 0.6875 2.1875 L 0.6875 -4.921875 L 1.4375 -4.921875 L 1.515625 -4.109375 C 1.679688 -4.347656 1.910156 -4.5625 2.203125 -4.75 C 2.492188 -4.945312 2.867188 -5.046875 3.328125 -5.046875 C 3.816406 -5.046875 4.242188 -4.929688 4.609375 -4.703125 C 4.972656 -4.484375 5.253906 -4.175781 5.453125 -3.78125 C 5.660156 -3.394531 5.765625 -2.953125 5.765625 -2.453125 C 5.765625 -1.953125 5.660156 -1.507812 5.453125 -1.125 C 5.253906 -0.738281 4.96875 -0.429688 4.59375 -0.203125 C 4.226562 0.015625 3.800781 0.125 3.3125 0.125 C 2.914062 0.125 2.554688 0.0390625 2.234375 -0.125 C 1.921875 -0.289062 1.679688 -0.523438 1.515625 -0.828125 L 1.515625 2.1875 Z M 3.234375 -0.609375 C 3.566406 -0.609375 3.859375 -0.6875 4.109375 -0.84375 C 4.359375 -1 4.554688 -1.210938 4.703125 -1.484375 C 4.847656 -1.765625 4.921875 -2.09375 4.921875 -2.46875 C 4.921875 -2.832031 4.847656 -3.15625 4.703125 -3.4375 C 4.554688 -3.71875 4.359375 -3.9375 4.109375 -4.09375 C 3.859375 -4.25 3.566406 -4.328125 3.234375 -4.328125 C 2.898438 -4.328125 2.609375 -4.25 2.359375 -4.09375 C 2.109375 -3.9375 1.910156 -3.71875 1.765625 -3.4375 C 1.617188 -3.15625 1.546875 -2.832031 1.546875 -2.46875 C 1.546875 -2.09375 1.617188 -1.765625 1.765625 -1.484375 C 1.910156 -1.210938 2.109375 -1 2.359375 -0.84375 C 2.609375 -0.6875 2.898438 -0.609375 3.234375 -0.609375 Z M 3.234375 -0.609375 "/></g></g></g><g fill="#000000" fill-opacity="1"><g transform="translate(82.349582, 56.393407)"><g/></g></g><g fill="#000000" fill-opacity="1"><g transform="translate(39.969914, 65.332596)"><g><path d="M 3.3125 0.125 C 2.914062 0.125 2.554688 0.0390625 2.234375 -0.125 C 1.921875 -0.289062 1.679688 -0.523438 1.515625 -0.828125 L 1.4375 0 L 0.6875 0 L 0.6875 -7.15625 L 1.515625 -7.15625 L 1.515625 -4.109375 C 1.679688 -4.347656 1.910156 -4.5625 2.203125 -4.75 C 2.492188 -4.945312 2.867188 -5.046875 3.328125 -5.046875 C 3.816406 -5.046875 4.242188 -4.929688 4.609375 -4.703125 C 4.972656 -4.484375 5.253906 -4.175781 5.453125 -3.78125 C 5.660156 -3.394531 5.765625 -2.953125 5.765625 -2.453125 C 5.765625 -1.953125 5.660156 -1.507812 5.453125 -1.125 C 5.253906 -0.738281 4.96875 -0.429688 4.59375 -0.203125 C 4.226562 0.015625 3.800781 0.125 3.3125 0.125 Z M 3.234375 -0.609375 C 3.566406 -0.609375 3.859375 -0.6875 4.109375 -0.84375 C 4.359375 -1 4.554688 -1.210938 4.703125 -1.484375 C 4.847656 -1.765625 4.921875 -2.09375 4.921875 -2.46875 C 4.921875 -2.832031 4.847656 -3.15625 4.703125 -3.4375 C 4.554688 -3.71875 4.359375 -3.9375 4.109375 -4.09375 C 3.859375 -4.25 3.566406 -4.328125 3.234375 -4.328125 C 2.898438 -4.328125 2.609375 -4.25 2.359375 -4.09375 C 2.109375 -3.9375 1.910156 -3.71875 1.765625 -3.4375 C 1.617188 -3.15625 1.546875 -2.832031 1.546875 -2.46875 C 1.546875 -2.09375 1.617188 -1.765625 1.765625 -1.484375 C 1.910156 -1.210938 2.109375 -1 2.359375 -0.84375 C 2.609375 -0.6875 2.898438 -0.609375 3.234375 -0.609375 Z M 3.234375 -0.609375 "/></g></g></g><g fill="#000000" fill-opacity="1"><g transform="translate(46.205017, 65.332596)"><g><path d="M 0.6875 0 L 0.6875 -4.921875 L 1.4375 -4.921875 L 1.515625 -3.984375 C 1.660156 -4.304688 1.890625 -4.5625 2.203125 -4.75 C 2.515625 -4.945312 2.898438 -5.046875 3.359375 -5.046875 L 3.359375 -4.171875 L 3.125 -4.171875 C 2.832031 -4.171875 2.5625 -4.117188 2.3125 -4.015625 C 2.070312 -3.910156 1.878906 -3.734375 1.734375 -3.484375 C 1.585938 -3.242188 1.515625 -2.910156 1.515625 -2.484375 L 1.515625 0 Z M 0.6875 0 "/></g></g></g><g fill="#000000" fill-opacity="1"><g transform="translate(49.809066, 65.332596)"><g><path d="M 2.90625 0.125 C 2.4375 0.125 2.019531 0.015625 1.65625 -0.203125 C 1.289062 -0.421875 1.003906 -0.71875 0.796875 -1.09375 C 0.585938 -1.476562 0.484375 -1.9375 0.484375 -2.46875 C 0.484375 -2.976562 0.582031 -3.425781 0.78125 -3.8125 C 0.988281 -4.207031 1.273438 -4.507812 1.640625 -4.71875 C 2.015625 -4.9375 2.441406 -5.046875 2.921875 -5.046875 C 3.398438 -5.046875 3.8125 -4.9375 4.15625 -4.71875 C 4.507812 -4.507812 4.773438 -4.226562 4.953125 -3.875 C 5.140625 -3.519531 5.234375 -3.144531 5.234375 -2.75 C 5.234375 -2.675781 5.234375 -2.601562 5.234375 -2.53125 C 5.234375 -2.457031 5.234375 -2.375 5.234375 -2.28125 L 1.296875 -2.28125 C 1.316406 -1.894531 1.40625 -1.578125 1.5625 -1.328125 C 1.71875 -1.085938 1.910156 -0.90625 2.140625 -0.78125 C 2.378906 -0.65625 2.632812 -0.59375 2.90625 -0.59375 C 3.25 -0.59375 3.535156 -0.671875 3.765625 -0.828125 C 3.992188 -0.984375 4.160156 -1.195312 4.265625 -1.46875 L 5.09375 -1.46875 C 4.96875 -1.007812 4.71875 -0.628906 4.34375 -0.328125 C 3.96875 -0.0234375 3.488281 0.125 2.90625 0.125 Z M 2.90625 -4.34375 C 2.507812 -4.34375 2.15625 -4.222656 1.84375 -3.984375 C 1.53125 -3.742188 1.351562 -3.390625 1.3125 -2.921875 L 4.40625 -2.921875 C 4.382812 -3.367188 4.234375 -3.71875 3.953125 -3.96875 C 3.671875 -4.21875 3.320312 -4.34375 2.90625 -4.34375 Z M 2.90625 -4.34375 "/></g></g></g><g fill="#000000" fill-opacity="1"><g transform="translate(55.458394, 65.332596)"><g><path d="M 2.328125 0.125 C 1.910156 0.125 1.566406 0.0546875 1.296875 -0.078125 C 1.023438 -0.222656 0.820312 -0.410156 0.6875 -0.640625 C 0.5625 -0.878906 0.5 -1.132812 0.5 -1.40625 C 0.5 -1.90625 0.691406 -2.289062 1.078125 -2.5625 C 1.460938 -2.832031 1.984375 -2.96875 2.640625 -2.96875 L 3.96875 -2.96875 L 3.96875 -3.03125 C 3.96875 -3.457031 3.851562 -3.78125 3.625 -4 C 3.40625 -4.226562 3.109375 -4.34375 2.734375 -4.34375 C 2.410156 -4.34375 2.128906 -4.257812 1.890625 -4.09375 C 1.660156 -3.9375 1.515625 -3.703125 1.453125 -3.390625 L 0.59375 -3.390625 C 0.625 -3.742188 0.742188 -4.039062 0.953125 -4.28125 C 1.160156 -4.53125 1.421875 -4.71875 1.734375 -4.84375 C 2.046875 -4.976562 2.378906 -5.046875 2.734375 -5.046875 C 3.421875 -5.046875 3.9375 -4.859375 4.28125 -4.484375 C 4.632812 -4.117188 4.8125 -3.632812 4.8125 -3.03125 L 4.8125 0 L 4.0625 0 L 4.015625 -0.890625 C 3.878906 -0.609375 3.675781 -0.367188 3.40625 -0.171875 C 3.132812 0.0234375 2.773438 0.125 2.328125 0.125 Z M 2.453125 -0.59375 C 2.773438 -0.59375 3.050781 -0.671875 3.28125 -0.828125 C 3.507812 -0.992188 3.679688 -1.207031 3.796875 -1.46875 C 3.910156 -1.738281 3.96875 -2.019531 3.96875 -2.3125 L 3.96875 -2.328125 L 2.71875 -2.328125 C 2.226562 -2.328125 1.878906 -2.238281 1.671875 -2.0625 C 1.472656 -1.894531 1.375 -1.6875 1.375 -1.4375 C 1.375 -1.175781 1.46875 -0.96875 1.65625 -0.8125 C 1.84375 -0.664062 2.109375 -0.59375 2.453125 -0.59375 Z M 2.453125 -0.59375 "/></g></g></g><g fill="#000000" fill-opacity="1"><g transform="translate(60.829725, 65.332596)"><g><path d="M 2.640625 0 C 2.179688 0 1.820312 -0.109375 1.5625 -0.328125 C 1.3125 -0.546875 1.1875 -0.941406 1.1875 -1.515625 L 1.1875 -4.21875 L 0.328125 -4.21875 L 0.328125 -4.921875 L 1.1875 -4.921875 L 1.296875 -6.109375 L 2.015625 -6.109375 L 2.015625 -4.921875 L 3.46875 -4.921875 L 3.46875 -4.21875 L 2.015625 -4.21875 L 2.015625 -1.515625 C 2.015625 -1.203125 2.078125 -0.988281 2.203125 -0.875 C 2.328125 -0.769531 2.550781 -0.71875 2.875 -0.71875 L 3.390625 -0.71875 L 3.390625 0 Z M 2.640625 0 "/></g></g></g><g fill="#000000" fill-opacity="1"><g transform="translate(64.672056, 65.332596)"><g><path d="M 0.6875 0 L 0.6875 -7.15625 L 1.515625 -7.15625 L 1.515625 -4.078125 C 1.679688 -4.390625 1.914062 -4.628906 2.21875 -4.796875 C 2.53125 -4.960938 2.863281 -5.046875 3.21875 -5.046875 C 3.789062 -5.046875 4.25 -4.867188 4.59375 -4.515625 C 4.9375 -4.160156 5.109375 -3.613281 5.109375 -2.875 L 5.109375 0 L 4.28125 0 L 4.28125 -2.796875 C 4.28125 -3.816406 3.867188 -4.328125 3.046875 -4.328125 C 2.609375 -4.328125 2.242188 -4.171875 1.953125 -3.859375 C 1.660156 -3.554688 1.515625 -3.117188 1.515625 -2.546875 L 1.515625 0 Z M 0.6875 0 "/></g></g></g><g fill="#000000" fill-opacity="1"><g transform="translate(70.351165, 65.332596)"><g><path d="M 1.1875 -6.015625 C 1.019531 -6.015625 0.878906 -6.066406 0.765625 -6.171875 C 0.660156 -6.285156 0.609375 -6.425781 0.609375 -6.59375 C 0.609375 -6.757812 0.660156 -6.894531 0.765625 -7 C 0.878906 -7.101562 1.019531 -7.15625 1.1875 -7.15625 C 1.351562 -7.15625 1.488281 -7.101562 1.59375 -7 C 1.707031 -6.894531 1.765625 -6.757812 1.765625 -6.59375 C 1.765625 -6.425781 1.707031 -6.285156 1.59375 -6.171875 C 1.488281 -6.066406 1.351562 -6.015625 1.1875 -6.015625 Z M 0.78125 0 L 0.78125 -4.921875 L 1.609375 -4.921875 L 1.609375 0 Z M 0.78125 0 "/></g></g></g><g fill="#000000" fill-opacity="1"><g transform="translate(72.72408, 65.332596)"><g><path d="M 0.6875 0 L 0.6875 -4.921875 L 1.4375 -4.921875 L 1.484375 -4.046875 C 1.648438 -4.359375 1.878906 -4.601562 2.171875 -4.78125 C 2.472656 -4.957031 2.8125 -5.046875 3.1875 -5.046875 C 3.769531 -5.046875 4.234375 -4.867188 4.578125 -4.515625 C 4.929688 -4.160156 5.109375 -3.613281 5.109375 -2.875 L 5.109375 0 L 4.265625 0 L 4.265625 -2.796875 C 4.265625 -3.816406 3.84375 -4.328125 3 -4.328125 C 2.570312 -4.328125 2.21875 -4.171875 1.9375 -3.859375 C 1.65625 -3.554688 1.515625 -3.117188 1.515625 -2.546875 L 1.515625 0 Z M 0.6875 0 "/></g></g></g><g fill="#000000" fill-opacity="1"><g transform="translate(78.403189, 65.332596)"><g><path d="M 2.640625 -1.546875 C 2.359375 -1.546875 2.101562 -1.582031 1.875 -1.65625 L 1.375 -1.1875 C 1.445312 -1.132812 1.535156 -1.085938 1.640625 -1.046875 C 1.753906 -1.015625 1.910156 -0.984375 2.109375 -0.953125 C 2.316406 -0.929688 2.609375 -0.898438 2.984375 -0.859375 C 3.640625 -0.816406 4.109375 -0.664062 4.390625 -0.40625 C 4.679688 -0.144531 4.828125 0.191406 4.828125 0.609375 C 4.828125 0.890625 4.75 1.160156 4.59375 1.421875 C 4.4375 1.679688 4.195312 1.894531 3.875 2.0625 C 3.5625 2.226562 3.148438 2.3125 2.640625 2.3125 C 2.203125 2.3125 1.804688 2.25 1.453125 2.125 C 1.109375 2.007812 0.84375 1.832031 0.65625 1.59375 C 0.46875 1.363281 0.375 1.070312 0.375 0.71875 C 0.375 0.53125 0.421875 0.328125 0.515625 0.109375 C 0.617188 -0.0976562 0.804688 -0.300781 1.078125 -0.5 C 0.929688 -0.5625 0.804688 -0.625 0.703125 -0.6875 C 0.597656 -0.757812 0.503906 -0.835938 0.421875 -0.921875 L 0.421875 -1.15625 L 1.265625 -1.984375 C 0.867188 -2.316406 0.671875 -2.753906 0.671875 -3.296875 C 0.671875 -3.617188 0.75 -3.910156 0.90625 -4.171875 C 1.0625 -4.441406 1.28125 -4.65625 1.5625 -4.8125 C 1.851562 -4.96875 2.210938 -5.046875 2.640625 -5.046875 C 2.921875 -5.046875 3.175781 -5.003906 3.40625 -4.921875 L 5.234375 -4.921875 L 5.234375 -4.296875 L 4.296875 -4.265625 C 4.492188 -3.984375 4.59375 -3.660156 4.59375 -3.296875 C 4.59375 -2.972656 4.515625 -2.675781 4.359375 -2.40625 C 4.203125 -2.144531 3.976562 -1.9375 3.6875 -1.78125 C 3.40625 -1.625 3.054688 -1.546875 2.640625 -1.546875 Z M 2.640625 -2.234375 C 2.984375 -2.234375 3.257812 -2.320312 3.46875 -2.5 C 3.675781 -2.6875 3.78125 -2.953125 3.78125 -3.296875 C 3.78125 -3.640625 3.675781 -3.898438 3.46875 -4.078125 C 3.257812 -4.265625 2.984375 -4.359375 2.640625 -4.359375 C 2.273438 -4.359375 1.988281 -4.265625 1.78125 -4.078125 C 1.570312 -3.898438 1.46875 -3.640625 1.46875 -3.296875 C 1.46875 -2.953125 1.570312 -2.6875 1.78125 -2.5 C 1.988281 -2.320312 2.273438 -2.234375 2.640625 -2.234375 Z M 1.1875 0.640625 C 1.1875 0.972656 1.320312 1.21875 1.59375 1.375 C 1.875 1.539062 2.222656 1.625 2.640625 1.625 C 3.054688 1.625 3.382812 1.53125 3.625 1.34375 C 3.875 1.164062 4 0.929688 4 0.640625 C 4 0.421875 3.910156 0.234375 3.734375 0.078125 C 3.566406 -0.078125 3.253906 -0.164062 2.796875 -0.1875 C 2.429688 -0.21875 2.113281 -0.25 1.84375 -0.28125 C 1.570312 -0.132812 1.394531 0.0195312 1.3125 0.1875 C 1.226562 0.351562 1.1875 0.503906 1.1875 0.640625 Z M 1.1875 0.640625 "/></g></g></g></svg>