<svg xmlns="http://www.w3.org/2000/svg" xmlns:xlink="http://www.w3.org/1999/xlink" width="118" zoomAndPan="magnify" viewBox="0 0 88.5 60.749998" height="81" preserveAspectRatio="xMidYMid meet" version="1.0"><defs><g/></defs><g fill="#000000" fill-opacity="1"><g transform="translate(18.794895, 40.612775)"><g><path d="M 0.890625 0 L 0.890625 -8.359375 L 2.046875 -8.359375 L 5.0625 -2.53125 L 8.046875 -8.359375 L 9.234375 -8.359375 L 9.234375 0 L 8.21875 0 L 8.21875 -6.5625 L 5.4375 -1.1875 L 4.671875 -1.1875 L 1.890625 -6.546875 L 1.890625 0 Z M 0.890625 0 "/></g></g></g><g fill="#000000" fill-opacity="1"><g transform="translate(28.901818, 40.612775)"><g><path d="M 3.484375 0.140625 C 2.921875 0.140625 2.421875 0.015625 1.984375 -0.234375 C 1.546875 -0.492188 1.203125 -0.851562 0.953125 -1.3125 C 0.703125 -1.78125 0.578125 -2.328125 0.578125 -2.953125 C 0.578125 -3.578125 0.695312 -4.117188 0.9375 -4.578125 C 1.1875 -5.046875 1.53125 -5.410156 1.96875 -5.671875 C 2.414062 -5.929688 2.929688 -6.0625 3.515625 -6.0625 C 4.085938 -6.0625 4.582031 -5.929688 5 -5.671875 C 5.414062 -5.410156 5.734375 -5.066406 5.953125 -4.640625 C 6.179688 -4.222656 6.296875 -3.773438 6.296875 -3.296875 C 6.296875 -3.203125 6.289062 -3.113281 6.28125 -3.03125 C 6.28125 -2.945312 6.28125 -2.847656 6.28125 -2.734375 L 1.5625 -2.734375 C 1.582031 -2.273438 1.6875 -1.894531 1.875 -1.59375 C 2.0625 -1.300781 2.296875 -1.078125 2.578125 -0.921875 C 2.867188 -0.773438 3.171875 -0.703125 3.484375 -0.703125 C 3.898438 -0.703125 4.242188 -0.796875 4.515625 -0.984375 C 4.796875 -1.179688 5.003906 -1.441406 5.140625 -1.765625 L 6.125 -1.765625 C 5.96875 -1.210938 5.660156 -0.753906 5.203125 -0.390625 C 4.753906 -0.0351562 4.179688 0.140625 3.484375 0.140625 Z M 3.484375 -5.21875 C 3.003906 -5.21875 2.578125 -5.070312 2.203125 -4.78125 C 1.835938 -4.488281 1.628906 -4.066406 1.578125 -3.515625 L 5.296875 -3.515625 C 5.273438 -4.046875 5.09375 -4.460938 4.75 -4.765625 C 4.40625 -5.066406 3.984375 -5.21875 3.484375 -5.21875 Z M 3.484375 -5.21875 "/></g></g></g><g fill="#000000" fill-opacity="1"><g transform="translate(35.691472, 40.612775)"><g><path d="M 0.828125 0 L 0.828125 -5.921875 L 1.734375 -5.921875 L 1.796875 -4.859375 C 1.984375 -5.234375 2.253906 -5.523438 2.609375 -5.734375 C 2.972656 -5.953125 3.378906 -6.0625 3.828125 -6.0625 C 4.523438 -6.0625 5.082031 -5.847656 5.5 -5.421875 C 5.925781 -4.992188 6.140625 -4.34375 6.140625 -3.46875 L 6.140625 0 L 5.140625 0 L 5.140625 -3.359375 C 5.140625 -4.585938 4.628906 -5.203125 3.609375 -5.203125 C 3.097656 -5.203125 2.671875 -5.015625 2.328125 -4.640625 C 1.992188 -4.273438 1.828125 -3.75 1.828125 -3.0625 L 1.828125 0 Z M 0.828125 0 "/></g></g></g><g fill="#000000" fill-opacity="1"><g transform="translate(42.516928, 40.612775)"><g><path d="M 2.796875 0.140625 C 2.296875 0.140625 1.882812 0.0546875 1.5625 -0.109375 C 1.238281 -0.273438 0.992188 -0.492188 0.828125 -0.765625 C 0.671875 -1.046875 0.59375 -1.351562 0.59375 -1.6875 C 0.59375 -2.289062 0.820312 -2.753906 1.28125 -3.078125 C 1.75 -3.398438 2.378906 -3.5625 3.171875 -3.5625 L 4.78125 -3.5625 L 4.78125 -3.640625 C 4.78125 -4.160156 4.644531 -4.550781 4.375 -4.8125 C 4.101562 -5.082031 3.738281 -5.21875 3.28125 -5.21875 C 2.894531 -5.21875 2.554688 -5.117188 2.265625 -4.921875 C 1.984375 -4.722656 1.8125 -4.441406 1.75 -4.078125 L 0.71875 -4.078125 C 0.757812 -4.503906 0.90625 -4.863281 1.15625 -5.15625 C 1.40625 -5.445312 1.71875 -5.671875 2.09375 -5.828125 C 2.46875 -5.984375 2.863281 -6.0625 3.28125 -6.0625 C 4.113281 -6.0625 4.738281 -5.835938 5.15625 -5.390625 C 5.570312 -4.953125 5.78125 -4.367188 5.78125 -3.640625 L 5.78125 0 L 4.875 0 L 4.828125 -1.0625 C 4.660156 -0.726562 4.414062 -0.441406 4.09375 -0.203125 C 3.769531 0.0234375 3.335938 0.140625 2.796875 0.140625 Z M 2.953125 -0.703125 C 3.328125 -0.703125 3.648438 -0.800781 3.921875 -1 C 4.203125 -1.195312 4.414062 -1.453125 4.5625 -1.765625 C 4.707031 -2.085938 4.78125 -2.425781 4.78125 -2.78125 L 4.78125 -2.796875 L 3.265625 -2.796875 C 2.671875 -2.796875 2.25 -2.691406 2 -2.484375 C 1.757812 -2.285156 1.640625 -2.035156 1.640625 -1.734375 C 1.640625 -1.421875 1.753906 -1.171875 1.984375 -0.984375 C 2.210938 -0.796875 2.535156 -0.703125 2.953125 -0.703125 Z M 2.953125 -0.703125 "/></g></g></g><g fill="#000000" fill-opacity="1"><g transform="translate(48.972471, 40.612775)"><g><path d="M 0.828125 0 L 0.828125 -8.59375 L 1.828125 -8.59375 L 1.828125 -4.90625 C 2.023438 -5.269531 2.304688 -5.550781 2.671875 -5.75 C 3.035156 -5.957031 3.4375 -6.0625 3.875 -6.0625 C 4.550781 -6.0625 5.097656 -5.847656 5.515625 -5.421875 C 5.929688 -4.992188 6.140625 -4.34375 6.140625 -3.46875 L 6.140625 0 L 5.140625 0 L 5.140625 -3.359375 C 5.140625 -4.585938 4.644531 -5.203125 3.65625 -5.203125 C 3.132812 -5.203125 2.695312 -5.015625 2.34375 -4.640625 C 2 -4.273438 1.828125 -3.75 1.828125 -3.0625 L 1.828125 0 Z M 0.828125 0 "/></g></g></g><g fill="#000000" fill-opacity="1"><g transform="translate(55.797926, 40.612775)"><g><path d="M 2.796875 0.140625 C 2.296875 0.140625 1.882812 0.0546875 1.5625 -0.109375 C 1.238281 -0.273438 0.992188 -0.492188 0.828125 -0.765625 C 0.671875 -1.046875 0.59375 -1.351562 0.59375 -1.6875 C 0.59375 -2.289062 0.820312 -2.753906 1.28125 -3.078125 C 1.75 -3.398438 2.378906 -3.5625 3.171875 -3.5625 L 4.78125 -3.5625 L 4.78125 -3.640625 C 4.78125 -4.160156 4.644531 -4.550781 4.375 -4.8125 C 4.101562 -5.082031 3.738281 -5.21875 3.28125 -5.21875 C 2.894531 -5.21875 2.554688 -5.117188 2.265625 -4.921875 C 1.984375 -4.722656 1.8125 -4.441406 1.75 -4.078125 L 0.71875 -4.078125 C 0.757812 -4.503906 0.90625 -4.863281 1.15625 -5.15625 C 1.40625 -5.445312 1.71875 -5.671875 2.09375 -5.828125 C 2.46875 -5.984375 2.863281 -6.0625 3.28125 -6.0625 C 4.113281 -6.0625 4.738281 -5.835938 5.15625 -5.390625 C 5.570312 -4.953125 5.78125 -4.367188 5.78125 -3.640625 L 5.78125 0 L 4.875 0 L 4.828125 -1.0625 C 4.660156 -0.726562 4.414062 -0.441406 4.09375 -0.203125 C 3.769531 0.0234375 3.335938 0.140625 2.796875 0.140625 Z M 2.953125 -0.703125 C 3.328125 -0.703125 3.648438 -0.800781 3.921875 -1 C 4.203125 -1.195312 4.414062 -1.453125 4.5625 -1.765625 C 4.707031 -2.085938 4.78125 -2.425781 4.78125 -2.78125 L 4.78125 -2.796875 L 3.265625 -2.796875 C 2.671875 -2.796875 2.25 -2.691406 2 -2.484375 C 1.757812 -2.285156 1.640625 -2.035156 1.640625 -1.734375 C 1.640625 -1.421875 1.753906 -1.171875 1.984375 -0.984375 C 2.210938 -0.796875 2.535156 -0.703125 2.953125 -0.703125 Z M 2.953125 -0.703125 "/></g></g></g><g fill="#000000" fill-opacity="1"><g transform="translate(62.25347, 40.612775)"><g><path d="M 0.828125 0 L 0.828125 -5.921875 L 1.734375 -5.921875 L 1.796875 -4.859375 C 1.984375 -5.234375 2.253906 -5.523438 2.609375 -5.734375 C 2.972656 -5.953125 3.378906 -6.0625 3.828125 -6.0625 C 4.523438 -6.0625 5.082031 -5.847656 5.5 -5.421875 C 5.925781 -4.992188 6.140625 -4.34375 6.140625 -3.46875 L 6.140625 0 L 5.140625 0 L 5.140625 -3.359375 C 5.140625 -4.585938 4.628906 -5.203125 3.609375 -5.203125 C 3.097656 -5.203125 2.671875 -5.015625 2.328125 -4.640625 C 1.992188 -4.273438 1.828125 -3.75 1.828125 -3.0625 L 1.828125 0 Z M 0.828125 0 "/></g></g></g><g fill="#000000" fill-opacity="1"><g transform="translate(29.107724, 54.782718)"><g><path d="M 0.828125 0 L 0.828125 -5.921875 L 1.734375 -5.921875 L 1.796875 -4.859375 C 1.984375 -5.234375 2.253906 -5.523438 2.609375 -5.734375 C 2.972656 -5.953125 3.378906 -6.0625 3.828125 -6.0625 C 4.523438 -6.0625 5.082031 -5.847656 5.5 -5.421875 C 5.925781 -4.992188 6.140625 -4.34375 6.140625 -3.46875 L 6.140625 0 L 5.140625 0 L 5.140625 -3.359375 C 5.140625 -4.585938 4.628906 -5.203125 3.609375 -5.203125 C 3.097656 -5.203125 2.671875 -5.015625 2.328125 -4.640625 C 1.992188 -4.273438 1.828125 -3.75 1.828125 -3.0625 L 1.828125 0 Z M 0.828125 0 "/></g></g></g><g fill="#000000" fill-opacity="1"><g transform="translate(35.933179, 54.782718)"><g><path d="M 2.796875 0.140625 C 2.296875 0.140625 1.882812 0.0546875 1.5625 -0.109375 C 1.238281 -0.273438 0.992188 -0.492188 0.828125 -0.765625 C 0.671875 -1.046875 0.59375 -1.351562 0.59375 -1.6875 C 0.59375 -2.289062 0.820312 -2.753906 1.28125 -3.078125 C 1.75 -3.398438 2.378906 -3.5625 3.171875 -3.5625 L 4.78125 -3.5625 L 4.78125 -3.640625 C 4.78125 -4.160156 4.644531 -4.550781 4.375 -4.8125 C 4.101562 -5.082031 3.738281 -5.21875 3.28125 -5.21875 C 2.894531 -5.21875 2.554688 -5.117188 2.265625 -4.921875 C 1.984375 -4.722656 1.8125 -4.441406 1.75 -4.078125 L 0.71875 -4.078125 C 0.757812 -4.503906 0.90625 -4.863281 1.15625 -5.15625 C 1.40625 -5.445312 1.71875 -5.671875 2.09375 -5.828125 C 2.46875 -5.984375 2.863281 -6.0625 3.28125 -6.0625 C 4.113281 -6.0625 4.738281 -5.835938 5.15625 -5.390625 C 5.570312 -4.953125 5.78125 -4.367188 5.78125 -3.640625 L 5.78125 0 L 4.875 0 L 4.828125 -1.0625 C 4.660156 -0.726562 4.414062 -0.441406 4.09375 -0.203125 C 3.769531 0.0234375 3.335938 0.140625 2.796875 0.140625 Z M 2.953125 -0.703125 C 3.328125 -0.703125 3.648438 -0.800781 3.921875 -1 C 4.203125 -1.195312 4.414062 -1.453125 4.5625 -1.765625 C 4.707031 -2.085938 4.78125 -2.425781 4.78125 -2.78125 L 4.78125 -2.796875 L 3.265625 -2.796875 C 2.671875 -2.796875 2.25 -2.691406 2 -2.484375 C 1.757812 -2.285156 1.640625 -2.035156 1.640625 -1.734375 C 1.640625 -1.421875 1.753906 -1.171875 1.984375 -0.984375 C 2.210938 -0.796875 2.535156 -0.703125 2.953125 -0.703125 Z M 2.953125 -0.703125 "/></g></g></g><g fill="#000000" fill-opacity="1"><g transform="translate(42.388723, 54.782718)"><g><path d="M 1.140625 0 L 1.140625 -5.078125 L 0.25 -5.078125 L 0.25 -5.921875 L 1.140625 -5.921875 L 1.140625 -6.953125 C 1.140625 -7.523438 1.28125 -7.941406 1.5625 -8.203125 C 1.851562 -8.460938 2.273438 -8.59375 2.828125 -8.59375 L 3.421875 -8.59375 L 3.421875 -7.734375 L 2.984375 -7.734375 C 2.679688 -7.734375 2.46875 -7.671875 2.34375 -7.546875 C 2.21875 -7.421875 2.15625 -7.210938 2.15625 -6.921875 L 2.15625 -5.921875 L 3.609375 -5.921875 L 3.609375 -5.078125 L 2.15625 -5.078125 L 2.15625 0 Z M 1.140625 0 "/></g></g></g><g fill="#000000" fill-opacity="1"><g transform="translate(46.362287, 54.782718)"><g><path d="M 2.796875 0.140625 C 2.296875 0.140625 1.882812 0.0546875 1.5625 -0.109375 C 1.238281 -0.273438 0.992188 -0.492188 0.828125 -0.765625 C 0.671875 -1.046875 0.59375 -1.351562 0.59375 -1.6875 C 0.59375 -2.289062 0.820312 -2.753906 1.28125 -3.078125 C 1.75 -3.398438 2.378906 -3.5625 3.171875 -3.5625 L 4.78125 -3.5625 L 4.78125 -3.640625 C 4.78125 -4.160156 4.644531 -4.550781 4.375 -4.8125 C 4.101562 -5.082031 3.738281 -5.21875 3.28125 -5.21875 C 2.894531 -5.21875 2.554688 -5.117188 2.265625 -4.921875 C 1.984375 -4.722656 1.8125 -4.441406 1.75 -4.078125 L 0.71875 -4.078125 C 0.757812 -4.503906 0.90625 -4.863281 1.15625 -5.15625 C 1.40625 -5.445312 1.71875 -5.671875 2.09375 -5.828125 C 2.46875 -5.984375 2.863281 -6.0625 3.28125 -6.0625 C 4.113281 -6.0625 4.738281 -5.835938 5.15625 -5.390625 C 5.570312 -4.953125 5.78125 -4.367188 5.78125 -3.640625 L 5.78125 0 L 4.875 0 L 4.828125 -1.0625 C 4.660156 -0.726562 4.414062 -0.441406 4.09375 -0.203125 C 3.769531 0.0234375 3.335938 0.140625 2.796875 0.140625 Z M 2.953125 -0.703125 C 3.328125 -0.703125 3.648438 -0.800781 3.921875 -1 C 4.203125 -1.195312 4.414062 -1.453125 4.5625 -1.765625 C 4.707031 -2.085938 4.78125 -2.425781 4.78125 -2.78125 L 4.78125 -2.796875 L 3.265625 -2.796875 C 2.671875 -2.796875 2.25 -2.691406 2 -2.484375 C 1.757812 -2.285156 1.640625 -2.035156 1.640625 -1.734375 C 1.640625 -1.421875 1.753906 -1.171875 1.984375 -0.984375 C 2.210938 -0.796875 2.535156 -0.703125 2.953125 -0.703125 Z M 2.953125 -0.703125 "/></g></g></g><g fill="#000000" fill-opacity="1"><g transform="translate(52.81783, 54.782718)"><g><path d="M 3.09375 0.140625 C 2.382812 0.140625 1.796875 -0.0351562 1.328125 -0.390625 C 0.859375 -0.753906 0.582031 -1.238281 0.5 -1.84375 L 1.53125 -1.84375 C 1.59375 -1.539062 1.753906 -1.273438 2.015625 -1.046875 C 2.285156 -0.816406 2.648438 -0.703125 3.109375 -0.703125 C 3.523438 -0.703125 3.832031 -0.789062 4.03125 -0.96875 C 4.226562 -1.144531 4.328125 -1.359375 4.328125 -1.609375 C 4.328125 -1.972656 4.195312 -2.210938 3.9375 -2.328125 C 3.6875 -2.441406 3.328125 -2.550781 2.859375 -2.65625 C 2.535156 -2.71875 2.210938 -2.804688 1.890625 -2.921875 C 1.578125 -3.046875 1.3125 -3.21875 1.09375 -3.4375 C 0.882812 -3.65625 0.78125 -3.941406 0.78125 -4.296875 C 0.78125 -4.816406 0.972656 -5.238281 1.359375 -5.5625 C 1.742188 -5.894531 2.265625 -6.0625 2.921875 -6.0625 C 3.554688 -6.0625 4.070312 -5.90625 4.46875 -5.59375 C 4.875 -5.28125 5.109375 -4.832031 5.171875 -4.25 L 4.171875 -4.25 C 4.140625 -4.550781 4.015625 -4.785156 3.796875 -4.953125 C 3.578125 -5.128906 3.28125 -5.21875 2.90625 -5.21875 C 2.550781 -5.21875 2.273438 -5.140625 2.078125 -4.984375 C 1.890625 -4.835938 1.796875 -4.640625 1.796875 -4.390625 C 1.796875 -4.148438 1.921875 -3.960938 2.171875 -3.828125 C 2.421875 -3.691406 2.757812 -3.578125 3.1875 -3.484375 C 3.550781 -3.398438 3.898438 -3.300781 4.234375 -3.1875 C 4.566406 -3.070312 4.835938 -2.898438 5.046875 -2.671875 C 5.253906 -2.453125 5.359375 -2.125 5.359375 -1.6875 C 5.367188 -1.15625 5.164062 -0.71875 4.75 -0.375 C 4.34375 -0.03125 3.789062 0.140625 3.09375 0.140625 Z M 3.09375 0.140625 "/></g></g></g><g fill="#000000" fill-opacity="1"><g transform="translate(51.541104, 24.602258)"><g><path d="M 2.046875 0.078125 C 1.703125 0.078125 1.398438 0 1.140625 -0.15625 C 0.890625 -0.3125 0.691406 -0.523438 0.546875 -0.796875 C 0.398438 -1.066406 0.328125 -1.378906 0.328125 -1.734375 C 0.328125 -2.078125 0.398438 -2.382812 0.546875 -2.65625 C 0.691406 -2.925781 0.890625 -3.140625 1.140625 -3.296875 C 1.398438 -3.453125 1.703125 -3.53125 2.046875 -3.53125 C 2.328125 -3.53125 2.578125 -3.472656 2.796875 -3.359375 C 3.015625 -3.242188 3.1875 -3.082031 3.3125 -2.875 L 3.3125 -5 L 3.890625 -5 L 3.890625 0 L 3.359375 0 L 3.3125 -0.5625 C 3.195312 -0.394531 3.035156 -0.242188 2.828125 -0.109375 C 2.617188 0.015625 2.359375 0.078125 2.046875 0.078125 Z M 2.109375 -0.421875 C 2.335938 -0.421875 2.539062 -0.472656 2.71875 -0.578125 C 2.894531 -0.691406 3.03125 -0.84375 3.125 -1.03125 C 3.226562 -1.226562 3.28125 -1.457031 3.28125 -1.71875 C 3.28125 -1.976562 3.226562 -2.207031 3.125 -2.40625 C 3.03125 -2.601562 2.894531 -2.753906 2.71875 -2.859375 C 2.539062 -2.972656 2.335938 -3.03125 2.109375 -3.03125 C 1.878906 -3.03125 1.675781 -2.972656 1.5 -2.859375 C 1.320312 -2.753906 1.179688 -2.601562 1.078125 -2.40625 C 0.984375 -2.207031 0.9375 -1.976562 0.9375 -1.71875 C 0.9375 -1.457031 0.984375 -1.226562 1.078125 -1.03125 C 1.179688 -0.84375 1.320312 -0.691406 1.5 -0.578125 C 1.675781 -0.472656 1.878906 -0.421875 2.109375 -0.421875 Z M 2.109375 -0.421875 "/></g></g></g><g fill="#000000" fill-opacity="1"><g transform="translate(55.912453, 24.602258)"><g><path d="M 2.03125 0.078125 C 1.695312 0.078125 1.398438 0.00390625 1.140625 -0.140625 C 0.890625 -0.296875 0.691406 -0.503906 0.546875 -0.765625 C 0.398438 -1.035156 0.328125 -1.351562 0.328125 -1.71875 C 0.328125 -2.082031 0.398438 -2.398438 0.546875 -2.671875 C 0.691406 -2.941406 0.890625 -3.148438 1.140625 -3.296875 C 1.398438 -3.453125 1.703125 -3.53125 2.046875 -3.53125 C 2.378906 -3.53125 2.664062 -3.453125 2.90625 -3.296875 C 3.15625 -3.148438 3.34375 -2.953125 3.46875 -2.703125 C 3.601562 -2.460938 3.671875 -2.203125 3.671875 -1.921875 C 3.671875 -1.867188 3.664062 -1.816406 3.65625 -1.765625 C 3.65625 -1.710938 3.65625 -1.65625 3.65625 -1.59375 L 0.90625 -1.59375 C 0.925781 -1.332031 0.988281 -1.113281 1.09375 -0.9375 C 1.207031 -0.757812 1.34375 -0.625 1.5 -0.53125 C 1.664062 -0.445312 1.84375 -0.40625 2.03125 -0.40625 C 2.269531 -0.40625 2.46875 -0.460938 2.625 -0.578125 C 2.789062 -0.691406 2.910156 -0.84375 2.984375 -1.03125 L 3.5625 -1.03125 C 3.46875 -0.707031 3.289062 -0.441406 3.03125 -0.234375 C 2.769531 -0.0234375 2.4375 0.078125 2.03125 0.078125 Z M 2.03125 -3.03125 C 1.75 -3.03125 1.5 -2.945312 1.28125 -2.78125 C 1.070312 -2.613281 0.953125 -2.367188 0.921875 -2.046875 L 3.09375 -2.046875 C 3.070312 -2.359375 2.960938 -2.597656 2.765625 -2.765625 C 2.566406 -2.941406 2.320312 -3.03125 2.03125 -3.03125 Z M 2.03125 -3.03125 "/></g></g></g><g fill="#000000" fill-opacity="1"><g transform="translate(59.873117, 24.602258)"><g><path d="M 1.84375 0 C 1.53125 0 1.28125 -0.0703125 1.09375 -0.21875 C 0.914062 -0.375 0.828125 -0.65625 0.828125 -1.0625 L 0.828125 -2.953125 L 0.234375 -2.953125 L 0.234375 -3.453125 L 0.828125 -3.453125 L 0.90625 -4.28125 L 1.40625 -4.28125 L 1.40625 -3.453125 L 2.421875 -3.453125 L 2.421875 -2.953125 L 1.40625 -2.953125 L 1.40625 -1.0625 C 1.40625 -0.84375 1.445312 -0.691406 1.53125 -0.609375 C 1.625 -0.535156 1.785156 -0.5 2.015625 -0.5 L 2.375 -0.5 L 2.375 0 Z M 1.84375 0 "/></g></g></g><g fill="#000000" fill-opacity="1"><g transform="translate(62.566923, 24.602258)"><g><path d="M 0.828125 -4.21875 C 0.710938 -4.21875 0.617188 -4.253906 0.546875 -4.328125 C 0.472656 -4.398438 0.4375 -4.492188 0.4375 -4.609375 C 0.4375 -4.722656 0.472656 -4.816406 0.546875 -4.890625 C 0.617188 -4.960938 0.710938 -5 0.828125 -5 C 0.941406 -5 1.035156 -4.960938 1.109375 -4.890625 C 1.191406 -4.816406 1.234375 -4.722656 1.234375 -4.609375 C 1.234375 -4.492188 1.191406 -4.398438 1.109375 -4.328125 C 1.035156 -4.253906 0.941406 -4.21875 0.828125 -4.21875 Z M 0.546875 0 L 0.546875 -3.453125 L 1.125 -3.453125 L 1.125 0 Z M 0.546875 0 "/></g></g></g><g fill="#000000" fill-opacity="1"><g transform="translate(64.230545, 24.602258)"><g><path d="M 0.484375 0 L 0.484375 -5 L 1.0625 -5 L 1.0625 -2 L 2.46875 -3.453125 L 3.1875 -3.453125 L 1.65625 -1.890625 L 3.390625 0 L 2.640625 0 L 1.0625 -1.78125 L 1.0625 0 Z M 0.484375 0 "/></g></g></g><g fill="#000000" fill-opacity="1"><g transform="translate(39.47753, 22.724219)"><g><path d="M 0.34375 2.421875 C 1.488281 1.691406 2.492188 0.910156 3.359375 0.078125 C 4.234375 -0.753906 4.910156 -1.609375 5.390625 -2.484375 C 5.878906 -3.367188 6.125 -4.234375 6.125 -5.078125 C 6.125 -5.960938 5.835938 -6.617188 5.265625 -7.046875 C 4.703125 -7.484375 3.953125 -7.691406 3.015625 -7.671875 C 2.566406 -7.660156 2.164062 -7.617188 1.8125 -7.546875 C 1.457031 -7.472656 1.1875 -7.421875 1 -7.390625 L 0.8125 -7.515625 L 1.78125 -13.21875 L 4.6875 -13.21875 C 5.53125 -13.21875 6.140625 -13.320312 6.515625 -13.53125 C 6.890625 -13.75 7.160156 -14.050781 7.328125 -14.4375 L 7.53125 -14.34375 C 7.382812 -14 7.1875 -13.644531 6.9375 -13.28125 C 6.695312 -12.925781 6.359375 -12.625 5.921875 -12.375 C 5.484375 -12.132812 4.894531 -12.015625 4.15625 -12.015625 L 1.828125 -12.015625 L 1.296875 -8.609375 C 1.648438 -8.722656 2.019531 -8.804688 2.40625 -8.859375 C 2.789062 -8.921875 3.226562 -8.953125 3.71875 -8.953125 C 4.695312 -8.953125 5.484375 -8.78125 6.078125 -8.4375 C 6.671875 -8.101562 7.097656 -7.679688 7.359375 -7.171875 C 7.628906 -6.660156 7.765625 -6.132812 7.765625 -5.59375 C 7.765625 -4.195312 7.128906 -2.828125 5.859375 -1.484375 C 4.597656 -0.148438 2.816406 1.222656 0.515625 2.640625 Z M 0.34375 2.421875 "/></g></g></g><g fill="#000000" fill-opacity="1"><g transform="translate(48.263827, 22.724219)"><g/></g></g><g fill="#000000" fill-opacity="1"><g transform="translate(52.230598, 22.724219)"><g/></g></g></svg>